<svg width="20" height="20" viewBox="0 0 20 20" fill="none" xmlns="http://www.w3.org/2000/svg">
<g clip-path="url(#clip0_4518_1294)">
<path d="M9.16666 7.50016H10.8333V5.00016H13.3333V3.3335H10.8333V0.833496H9.16666V3.3335H6.66666V5.00016H9.16666V7.50016ZM5.83333 15.0002C4.91666 15.0002 4.175 15.7502 4.175 16.6668C4.175 17.5835 4.91666 18.3335 5.83333 18.3335C6.74999 18.3335 7.49999 17.5835 7.49999 16.6668C7.49999 15.7502 6.74999 15.0002 5.83333 15.0002ZM14.1667 15.0002C13.25 15.0002 12.5083 15.7502 12.5083 16.6668C12.5083 17.5835 13.25 18.3335 14.1667 18.3335C15.0833 18.3335 15.8333 17.5835 15.8333 16.6668C15.8333 15.7502 15.0833 15.0002 14.1667 15.0002ZM5.97499 12.2918L5.99999 12.1918L6.75 10.8335H12.9583C13.5833 10.8335 14.1333 10.4918 14.4167 9.97516L17.6333 4.1335L16.1833 3.3335H16.175L15.2583 5.00016L12.9583 9.16683H7.10833L6.99999 8.94183L5.13333 5.00016L4.34166 3.3335L3.55833 1.66683H0.833328V3.3335H2.49999L5.49999 9.6585L4.37499 11.7002C4.24166 11.9335 4.16666 12.2085 4.16666 12.5002C4.16666 13.4168 4.91666 14.1668 5.83333 14.1668H15.8333V12.5002H6.18333C6.07499 12.5002 5.97499 12.4085 5.97499 12.2918Z" fill="white"/>
</g>
<defs>
<clipPath id="clip0_4518_1294">
<rect width="20" height="20" fill="white"/>
</clipPath>
</defs>
</svg>
