<svg width="32" height="32" viewBox="0 0 32 32" fill="none" xmlns="http://www.w3.org/2000/svg">
<g clip-path="url(#clip0_4518_943)">
<path d="M9.33334 23.9998C7.86668 23.9998 6.68001 25.1998 6.68001 26.6665C6.68001 28.1332 7.86668 29.3332 9.33334 29.3332C10.8 29.3332 12 28.1332 12 26.6665C12 25.1998 10.8 23.9998 9.33334 23.9998ZM1.33334 2.6665V5.33317H4.00001L8.80001 15.4532L7.00001 18.7198C6.78668 19.0932 6.66668 19.5332 6.66668 19.9998C6.66668 21.4665 7.86668 22.6665 9.33334 22.6665H25.3333V19.9998H9.89334C9.70668 19.9998 9.56001 19.8532 9.56001 19.6665L9.60001 19.5065L10.8 17.3332H20.7333C21.7333 17.3332 22.6133 16.7865 23.0667 15.9598L27.84 7.3065C27.9467 7.11984 28 6.89317 28 6.6665C28 5.93317 27.4 5.33317 26.6667 5.33317H6.94668L5.69334 2.6665H1.33334ZM22.6667 23.9998C21.2 23.9998 20.0133 25.1998 20.0133 26.6665C20.0133 28.1332 21.2 29.3332 22.6667 29.3332C24.1333 29.3332 25.3333 28.1332 25.3333 26.6665C25.3333 25.1998 24.1333 23.9998 22.6667 23.9998Z" fill="white"/>
</g>
<defs>
<clipPath id="clip0_4518_943">
<rect width="32" height="32" fill="white"/>
</clipPath>
</defs>
</svg>
